<?xml version="1.0" encoding="UTF-8"?>
<svg version="1.1" viewBox="0 0 738 1600" width="1280" height="1280" xmlns="http://www.w3.org/2000/svg">
<path transform="translate(0)" d="m0 0h738v1600h-738z" fill="#321F65"/>
<path transform="translate(734,1174)" d="m0 0h4v90l-6 3-2 3h-2l-1 4-5 3-4 1-2 7-6 6-10 2-1 3h-2l1 3-4 2-4 4-9 3-6 8-4 2h-4v-4l-11 6-5 5h-5l-2-2-5 2 2-5v-4l-4 3h-2v-2l-7-1-3-8v-3l-5 5-3 2 1-7h-1l-6 1 2-4-7-1 1-8-7-1 2-7v-7l4-2h3v-7l3-7 5-5 2-5 1-10 8-4 7-2 8-4 3-3 8-2 3-3 9-1v-2l5-3 6-2 4-5 6-2 4-4 9-2 4-5 8-4 4-5 9-9 3-1v-2z" fill="#423D8D"/>
<path transform="translate(0)" d="m0 0h118l-2 5-10 14-12 17-7 13-12 19-7 10-5 3h-2l-2 6-11 15-8 13-6 15-8 11-3 6-4 9-8 16-8 11-3 1z" fill="#0B0827"/>
<path transform="translate(734,1369)" d="m0 0h4v231h-19l-1-12-7-14v-15l-4-6v-11l-1-6-1-9-1-2v-13l-2-4-2-13 5-5-1-14-1-2-1-15 4-7h2l1-5v-8l-1-7 1-7-1-4 2-4 5-2 1-8 2-6 3-1-1-4 1-1v-9l5-2 2-6 5-2v-6z" fill="#5951A2"/>
<path transform="translate(573,756)" d="m0 0h10l9 3 6 4 4 5 4 10v11l-1 1h-41l4 8 6 4h7l6-3 2-3h15l-1 5-7 8-6 4-8 2h-8l-10-3-7-5-6-10-1-4v-16l4-9 5-6 9-5z" fill="#fff"/>
<path transform="translate(232,756)" d="m0 0h10l11 4 7 7 4 9 1 11-1 3h-41l3 8 4 3 3 1h7l5-3 3-3h15l-2 6-7 8-8 4-13 1-10-3-8-6-5-8-2-9 1-13 5-10 8-7z" fill="#fff"/>
<path transform="translate(97,742)" d="m0 0h40l1 1v10l-1 1h-26v18h24v11h-24v19h26l1 1v10l-1 1h-41v-71z" fill="#fff"/>
<path transform="translate(303,756)" d="m0 0h7l9 3 5 4 4 7 1 4v40h-14l-1-36-3-6-7-3-8 1-4 4-2 6-1 34h-14v-57h14v6l10-6z" fill="#fff"/>
<path transform="translate(473,756)" d="m0 0h11l10 4 6 7 1 8h-13l-3-5-8-2-6 1v6l5 3 18 6 6 5 2 5v7l-3 6-6 5-4 2-13 1-10-3-8-6-3-6v-4h14l5 6h11l2-2v-5l-10-4-13-4-6-5-2-5v-7l3-6 7-6z" fill="#fff"/>
<path transform="translate(145,757)" d="m0 0h15l14 41 4-10 10-30 1-1h15l-8 23-13 34h-17l-4-9-17-46z" fill="#fff"/>
<path transform="translate(383,742)" d="m0 0h13l1 1v59h23v12h-37l-1-1v-70z" fill="#fff"/>
<path transform="translate(516,743)" d="m0 0h14v14h13v12h-13l1 29 3 3 9 1v12h-13l-8-3-5-6-1-3v-33h-7v-12h7z" fill="#fff"/>
<path transform="translate(345,743)" d="m0 0h14v14h13v12h-13l1 29 3 3 9 1v12h-13l-8-3-5-6-1-4v-32h-7v-12h7z" fill="#fff"/>
<path transform="translate(645,756)" d="m0 0h3v15l-11 2-4 4-1 2-1 35h-14l-1-1v-55l1-1h14l1 7 5-5z" fill="#fff"/>
<path transform="translate(429,757)" d="m0 0h15v57h-14l-1-1z" fill="#fff"/>
<path transform="translate(622,853)" d="m0 0 3 1 1 2 4-3h8l6 4 3 7-1 8-5 6-2 1h-9l-4-2-1 11h-4v-34z" fill="#fff"/>
<path transform="translate(469,843)" d="m0 0h3l1 13 5-3h8l7 6 1 3v9l-4 6-4 2h-9l-5-3v3h-3z" fill="#fff"/>
<path transform="translate(590,853)" d="m0 0h3l1 3 5-3h8l7 6 1 3v9l-4 6-4 2h-9l-5-3v12h-3z" fill="#fff"/>
<path transform="translate(199,843)" d="m0 0h3l1 13 5-3h7l5 3 4 6v8l-3 5-5 4h-9l-4-3-1 3h-3z" fill="#fff"/>
<path transform="translate(446,853)" d="m0 0h8l6 4 3 7-1 8-4 5-4 2h-9l-7-6-1-3v-8l4-6z" fill="#35236A"/>
<path transform="translate(399,844)" d="m0 0 5 1 8 12 3 3 11-16h4v35l-4-1-1-24-10 14-4-4-7-11-1 26h-4z" fill="#fff"/>
<path transform="translate(568,844)" d="m0 0h5l5 12 7 20v3l-4-1-2-8h-16l-3 9h-4l3-10z" fill="#fff"/>
<path transform="translate(93,844)" d="m0 0h4l16 23 2 3 1-26h3v35l-4-1-11-16-6-9-1 25-4 1z" fill="#fff"/>
<path transform="translate(529,853)" d="m0 0h8l7 6 1 8h-20l3 7 2 1h7l4-3 3 1-2 4-4 2h-9l-5-3-3-6v-8l3-5z" fill="#fff"/>
<path transform="translate(323,853)" d="m0 0h8l5 3 3 6v5h-20l3 7 2 1h7l4-3 3 1-2 4-4 2h-9l-7-6-1-3v-8l4-6z" fill="#fff"/>
<path transform="translate(135,853)" d="m0 0h7l5 3 3 6v5h-20l2 6 3 2h7l4-3 3 1-2 4-4 2h-9l-6-5-2-5 1-9 5-6z" fill="#fff"/>
<path transform="translate(163,853)" d="m0 0h7l5 4v22h-3l-1-2-3 2h-9l-4-4v-6l4-4 9-2h4l-2-5-6-1-4 3-4-2 4-4z" fill="#fff"/>
<path transform="translate(264,844)" d="m0 0h22v3l-18 1-1 11h18v4h-18v12h19v4h-22z" fill="#fff"/>
<path transform="translate(210,856)" d="m0 0 6 1 4 5v8l-4 5-7 1-5-3-2-4 1-8 4-4z" fill="#342269"/>
<path transform="translate(633,856)" d="m0 0 7 2 3 5v6l-4 6-7 1-5-3-2-3v-7l3-5z" fill="#35236A"/>
<path transform="translate(480,856)" d="m0 0 6 1 4 5v9l-6 5-7-1-4-4-1-6 2-5 3-3z" fill="#342269"/>
<path transform="translate(601,856)" d="m0 0 6 1 4 5v8l-4 5-7 1-4-2-3-6 1-7 4-4z" fill="#342269"/>
<path transform="translate(446,853)" d="m0 0h8l6 4 3 7-1 8-4 5-4 2h-9l-7-6-1-3v-8l4-6zm3 3-6 3-2 3v8l4 5 7 1 5-3 2-4v-6l-5-6z" fill="#fff"/>
<path transform="translate(573,768)" d="m0 0h9l6 3 3 5v4h-27l3-8z" fill="#332167"/>
<path transform="translate(232,768)" d="m0 0h9l6 4 3 5v3h-27l1-5 4-5z" fill="#332167"/>
<path transform="translate(227,853)" d="m0 0 4 1 8 19 7-18 4-2 1 2-12 29-5 5h-7v-3l7-2 2-6-9-23z" fill="#fff"/>
<path transform="translate(432,734)" d="m0 0h9l4 4v8l-4 4h-8l-5-5v-6z" fill="#fff"/>
<path transform="translate(346,853)" d="m0 0 4 2 3-2h6l6 5v21h-3l-1-18-2-3-5-1-4 1-1 20-4 1v-25z" fill="#fff"/>
<path transform="translate(290,853)" d="m0 0 4 2 6 16 1 1 7-18 4-1-3 10-6 15-4 1-5-11-5-14z" fill="#fff"/>
<path transform="translate(375,848)" d="m0 0h3v5h5l1 4h-6l1 16 1 2 4 1v3l-7-1-2-3v-18h-5l1-4h3z" fill="#fff"/>
<path transform="translate(511,843)" d="m0 0h4v36h-4z" fill="#fff"/>
<path transform="translate(570,849)" d="m0 0 2 1 5 14v3h-12l1-7z" fill="#3A2971"/>
<path transform="translate(190,853)" d="m0 0 5 1-1 3-6 2-1 2-1 18h-3v-25z" fill="#fff"/>
<path transform="translate(168,866)" d="m0 0h4l-1 7-4 3h-7l-2-5 2-3z" fill="#36256C"/>
<path transform="translate(325,856)" d="m0 0 7 1 3 4v3h-16l1-5z" fill="#36246C"/>
<path transform="translate(136,856)" d="m0 0 7 1 3 4v3h-16l1-4 3-3z" fill="#35236A"/>
<path transform="translate(501,853)" d="m0 0 3 1v25l-4-1v-24z" fill="#fff"/>
<path transform="translate(531,856)" d="m0 0 6 1 4 4v3h-16l1-5z" fill="#36246C"/>
</svg>
